# xmcd
#
# Track frame offsets:
# 150
# 18865
# 29545
# 47122
# 59847
# 77744
# 106067
# 123343
# 136140
# 150599
#
# Disc length: 2299 seconds
#
#
# Revision: 0
# Processed by: cddbd v1.5.2PL0 Copyright (c) Steve Scherf et al.
# Submitted via: FreeRIP 2.951 
#
DISCID=7b08f90a
DTITLE=Timothy - Slzy
DYEAR=2005
DGENRE=Blues
TTITLE0=Strateny v tme
TTITLE1=Snivas o stasti
TTITLE2=Niekto hlada tvar
TTITLE3=Si krehka
TTITLE4=Vyber tuzby
TTITLE5=Je kvietok v trave
TTITLE6=Tuzim
TTITLE7=Ked mi raz vyrasties
TTITLE8=Tak mnoho krat
TTITLE9=Slzy
EXTD=:)
EXTT0=
EXTT1=
EXTT2=
EXTT3=
EXTT4=
EXTT5=
EXTT6=
EXTT7=
EXTT8=
EXTT9=
PLAYORDER=
